<mxfile host="Electron" agent="Mozilla/5.0 (Windows NT 10.0; Win64; x64) AppleWebKit/537.36 (KHTML, like Gecko) draw.io/24.7.17 Chrome/128.0.6613.36 Electron/32.0.1 Safari/537.36" version="24.7.17">
  <diagram name="Page-1" id="AbDhWT1tx2h1V6NKrcqI">
    <mxGraphModel dx="1900" dy="629" grid="1" gridSize="10" guides="1" tooltips="1" connect="1" arrows="1" fold="1" page="1" pageScale="1" pageWidth="850" pageHeight="1100" math="0" shadow="0">
      <root>
        <mxCell id="0" />
        <mxCell id="1" parent="0" />
        <mxCell id="ATfqg-6l0cNKasMjlDqd-2" value="User&lt;br&gt;(Khách Hàng)" style="shape=umlActor;verticalLabelPosition=bottom;verticalAlign=top;html=1;outlineConnect=0;" parent="1" vertex="1">
          <mxGeometry x="-250" y="360" width="50" height="60" as="geometry" />
        </mxCell>
        <mxCell id="ATfqg-6l0cNKasMjlDqd-16" value="Đặt vé đi du lịch" style="ellipse;whiteSpace=wrap;html=1;" parent="1" vertex="1">
          <mxGeometry x="510" y="410" width="90" height="50" as="geometry" />
        </mxCell>
        <mxCell id="ATfqg-6l0cNKasMjlDqd-17" value="chọn địa điểm đi" style="ellipse;whiteSpace=wrap;html=1;" parent="1" vertex="1">
          <mxGeometry x="750" y="510" width="80" height="80" as="geometry" />
        </mxCell>
        <mxCell id="ATfqg-6l0cNKasMjlDqd-25" value="Chọn chuyến bay" style="ellipse;whiteSpace=wrap;html=1;" parent="1" vertex="1">
          <mxGeometry x="720" y="360" width="120" height="80" as="geometry" />
        </mxCell>
        <mxCell id="ATfqg-6l0cNKasMjlDqd-30" value="chọn khách sạn" style="ellipse;whiteSpace=wrap;html=1;" parent="1" vertex="1">
          <mxGeometry x="690" y="210" width="120" height="80" as="geometry" />
        </mxCell>
        <mxCell id="ATfqg-6l0cNKasMjlDqd-35" value="" style="endArrow=none;html=1;rounded=0;exitX=0.75;exitY=0.1;exitDx=0;exitDy=0;exitPerimeter=0;" parent="1" source="ATfqg-6l0cNKasMjlDqd-2" target="ATfqg-6l0cNKasMjlDqd-36" edge="1">
          <mxGeometry width="50" height="50" relative="1" as="geometry">
            <mxPoint x="-70" y="360" as="sourcePoint" />
            <mxPoint x="-20" y="250" as="targetPoint" />
          </mxGeometry>
        </mxCell>
        <mxCell id="ATfqg-6l0cNKasMjlDqd-36" value="sử dụng app booking travel" style="ellipse;whiteSpace=wrap;html=1;" parent="1" vertex="1">
          <mxGeometry x="-200" y="260" width="120" height="80" as="geometry" />
        </mxCell>
        <mxCell id="ATfqg-6l0cNKasMjlDqd-37" value="" style="endArrow=classic;html=1;rounded=0;dashed=1;" parent="1" source="ATfqg-6l0cNKasMjlDqd-36" target="ATfqg-6l0cNKasMjlDqd-40" edge="1">
          <mxGeometry width="50" height="50" relative="1" as="geometry">
            <mxPoint x="190" y="250" as="sourcePoint" />
            <mxPoint x="10" y="190" as="targetPoint" />
          </mxGeometry>
        </mxCell>
        <mxCell id="ATfqg-6l0cNKasMjlDqd-42" value="&amp;lt;&amp;lt;extend&amp;gt;&amp;gt;" style="edgeLabel;html=1;align=center;verticalAlign=middle;resizable=0;points=[];" parent="ATfqg-6l0cNKasMjlDqd-37" vertex="1" connectable="0">
          <mxGeometry x="-0.071" y="4" relative="1" as="geometry">
            <mxPoint as="offset" />
          </mxGeometry>
        </mxCell>
        <mxCell id="ATfqg-6l0cNKasMjlDqd-40" value="người dùng mới" style="ellipse;whiteSpace=wrap;html=1;" parent="1" vertex="1">
          <mxGeometry x="-70" y="160" width="120" height="80" as="geometry" />
        </mxCell>
        <mxCell id="ATfqg-6l0cNKasMjlDqd-53" value="" style="edgeStyle=orthogonalEdgeStyle;rounded=0;orthogonalLoop=1;jettySize=auto;html=1;dashed=1;" parent="1" source="ATfqg-6l0cNKasMjlDqd-43" target="ATfqg-6l0cNKasMjlDqd-52" edge="1">
          <mxGeometry relative="1" as="geometry" />
        </mxCell>
        <mxCell id="ATfqg-6l0cNKasMjlDqd-54" value="&amp;lt;&amp;lt;include&amp;gt;&amp;gt;" style="edgeLabel;html=1;align=center;verticalAlign=middle;resizable=0;points=[];" parent="ATfqg-6l0cNKasMjlDqd-53" vertex="1" connectable="0">
          <mxGeometry x="-0.256" y="-1" relative="1" as="geometry">
            <mxPoint as="offset" />
          </mxGeometry>
        </mxCell>
        <mxCell id="ATfqg-6l0cNKasMjlDqd-43" value="người dùng cũ" style="ellipse;whiteSpace=wrap;html=1;" parent="1" vertex="1">
          <mxGeometry x="-60.00000000000001" y="380" width="120" height="80" as="geometry" />
        </mxCell>
        <mxCell id="ATfqg-6l0cNKasMjlDqd-46" value="" style="endArrow=classic;html=1;rounded=0;dashed=1;" parent="1" source="ATfqg-6l0cNKasMjlDqd-36" target="ATfqg-6l0cNKasMjlDqd-43" edge="1">
          <mxGeometry width="50" height="50" relative="1" as="geometry">
            <mxPoint x="-60.49" y="323.72" as="sourcePoint" />
            <mxPoint x="65.50999999999999" y="239.72" as="targetPoint" />
          </mxGeometry>
        </mxCell>
        <mxCell id="ATfqg-6l0cNKasMjlDqd-47" value="&amp;lt;extend&amp;gt;" style="edgeLabel;html=1;align=center;verticalAlign=middle;resizable=0;points=[];" parent="ATfqg-6l0cNKasMjlDqd-46" vertex="1" connectable="0">
          <mxGeometry x="-0.071" y="4" relative="1" as="geometry">
            <mxPoint as="offset" />
          </mxGeometry>
        </mxCell>
        <mxCell id="ATfqg-6l0cNKasMjlDqd-48" value="" style="endArrow=classic;html=1;rounded=0;dashed=1;" parent="1" source="ATfqg-6l0cNKasMjlDqd-40" target="ATfqg-6l0cNKasMjlDqd-49" edge="1">
          <mxGeometry width="50" height="50" relative="1" as="geometry">
            <mxPoint x="190" y="250" as="sourcePoint" />
            <mxPoint x="240" y="200" as="targetPoint" />
          </mxGeometry>
        </mxCell>
        <mxCell id="ATfqg-6l0cNKasMjlDqd-51" value="&amp;lt;&amp;lt;include&amp;gt;&amp;gt;" style="edgeLabel;html=1;align=center;verticalAlign=middle;resizable=0;points=[];" parent="ATfqg-6l0cNKasMjlDqd-48" vertex="1" connectable="0">
          <mxGeometry x="-0.3077" y="2" relative="1" as="geometry">
            <mxPoint as="offset" />
          </mxGeometry>
        </mxCell>
        <mxCell id="ATfqg-6l0cNKasMjlDqd-55" value="&amp;lt;extend&amp;gt;" style="edgeStyle=orthogonalEdgeStyle;rounded=0;orthogonalLoop=1;jettySize=auto;html=1;dashed=1;" parent="1" source="ATfqg-6l0cNKasMjlDqd-49" target="ATfqg-6l0cNKasMjlDqd-52" edge="1">
          <mxGeometry relative="1" as="geometry" />
        </mxCell>
        <mxCell id="ATfqg-6l0cNKasMjlDqd-49" value="tạo account mới" style="ellipse;whiteSpace=wrap;html=1;aspect=fixed;" parent="1" vertex="1">
          <mxGeometry x="180" y="160" width="80" height="80" as="geometry" />
        </mxCell>
        <mxCell id="ATfqg-6l0cNKasMjlDqd-52" value="Đăng Nhập" style="ellipse;whiteSpace=wrap;html=1;" parent="1" vertex="1">
          <mxGeometry x="190" y="380" width="80" height="80" as="geometry" />
        </mxCell>
        <mxCell id="ATfqg-6l0cNKasMjlDqd-58" value="" style="endArrow=classic;html=1;rounded=0;exitX=1;exitY=0;exitDx=0;exitDy=0;dashed=1;" parent="1" source="ATfqg-6l0cNKasMjlDqd-52" target="ATfqg-6l0cNKasMjlDqd-60" edge="1">
          <mxGeometry width="50" height="50" relative="1" as="geometry">
            <mxPoint x="580" y="410" as="sourcePoint" />
            <mxPoint x="430" y="340" as="targetPoint" />
          </mxGeometry>
        </mxCell>
        <mxCell id="ATfqg-6l0cNKasMjlDqd-61" value="&amp;lt;include&amp;gt;" style="edgeLabel;html=1;align=center;verticalAlign=middle;resizable=0;points=[];" parent="ATfqg-6l0cNKasMjlDqd-58" vertex="1" connectable="0">
          <mxGeometry x="0.168" y="-3" relative="1" as="geometry">
            <mxPoint as="offset" />
          </mxGeometry>
        </mxCell>
        <mxCell id="ATfqg-6l0cNKasMjlDqd-60" value="Xem lịch sử đặt tour" style="ellipse;whiteSpace=wrap;html=1;aspect=fixed;" parent="1" vertex="1">
          <mxGeometry x="390" y="270" width="80" height="80" as="geometry" />
        </mxCell>
        <mxCell id="ATfqg-6l0cNKasMjlDqd-62" value="" style="endArrow=classic;html=1;rounded=0;dashed=1;" parent="1" source="ATfqg-6l0cNKasMjlDqd-52" target="ATfqg-6l0cNKasMjlDqd-16" edge="1">
          <mxGeometry width="50" height="50" relative="1" as="geometry">
            <mxPoint x="580" y="410" as="sourcePoint" />
            <mxPoint x="410.64520359599464" y="452.84458247199905" as="targetPoint" />
          </mxGeometry>
        </mxCell>
        <mxCell id="ATfqg-6l0cNKasMjlDqd-64" value="include" style="endArrow=classic;html=1;rounded=0;dashed=1;" parent="1" target="ATfqg-6l0cNKasMjlDqd-30" edge="1">
          <mxGeometry width="50" height="50" relative="1" as="geometry">
            <mxPoint x="580" y="410" as="sourcePoint" />
            <mxPoint x="630" y="360" as="targetPoint" />
          </mxGeometry>
        </mxCell>
        <mxCell id="ATfqg-6l0cNKasMjlDqd-65" value="" style="endArrow=classic;html=1;rounded=0;dashed=1;" parent="1" target="ATfqg-6l0cNKasMjlDqd-25" edge="1">
          <mxGeometry width="50" height="50" relative="1" as="geometry">
            <mxPoint x="580" y="410" as="sourcePoint" />
            <mxPoint x="630" y="360" as="targetPoint" />
          </mxGeometry>
        </mxCell>
        <mxCell id="ATfqg-6l0cNKasMjlDqd-66" value="include" style="edgeLabel;html=1;align=center;verticalAlign=middle;resizable=0;points=[];" parent="ATfqg-6l0cNKasMjlDqd-65" vertex="1" connectable="0">
          <mxGeometry x="0.4614" y="-4" relative="1" as="geometry">
            <mxPoint as="offset" />
          </mxGeometry>
        </mxCell>
        <mxCell id="ATfqg-6l0cNKasMjlDqd-67" value="" style="endArrow=classic;html=1;rounded=0;entryX=0;entryY=0.5;entryDx=0;entryDy=0;dashed=1;" parent="1" source="ATfqg-6l0cNKasMjlDqd-16" target="ATfqg-6l0cNKasMjlDqd-17" edge="1">
          <mxGeometry width="50" height="50" relative="1" as="geometry">
            <mxPoint x="580" y="560" as="sourcePoint" />
            <mxPoint x="630" y="510" as="targetPoint" />
          </mxGeometry>
        </mxCell>
        <mxCell id="ATfqg-6l0cNKasMjlDqd-68" value="include" style="edgeLabel;html=1;align=center;verticalAlign=middle;resizable=0;points=[];" parent="ATfqg-6l0cNKasMjlDqd-67" vertex="1" connectable="0">
          <mxGeometry x="0.3333" y="2" relative="1" as="geometry">
            <mxPoint as="offset" />
          </mxGeometry>
        </mxCell>
        <mxCell id="ATfqg-6l0cNKasMjlDqd-69" value="" style="endArrow=classic;html=1;rounded=0;exitX=0.955;exitY=0.23;exitDx=0;exitDy=0;exitPerimeter=0;dashed=1;" parent="1" source="ATfqg-6l0cNKasMjlDqd-17" target="ATfqg-6l0cNKasMjlDqd-70" edge="1">
          <mxGeometry width="50" height="50" relative="1" as="geometry">
            <mxPoint x="550" y="580" as="sourcePoint" />
            <mxPoint x="1030" y="430" as="targetPoint" />
            <Array as="points">
              <mxPoint x="930" y="490" />
            </Array>
          </mxGeometry>
        </mxCell>
        <mxCell id="ATfqg-6l0cNKasMjlDqd-75" value="include" style="edgeLabel;html=1;align=center;verticalAlign=middle;resizable=0;points=[];" parent="ATfqg-6l0cNKasMjlDqd-69" vertex="1" connectable="0">
          <mxGeometry x="-0.1113" y="2" relative="1" as="geometry">
            <mxPoint as="offset" />
          </mxGeometry>
        </mxCell>
        <mxCell id="ATfqg-6l0cNKasMjlDqd-70" value="thanh toán" style="ellipse;whiteSpace=wrap;html=1;aspect=fixed;" parent="1" vertex="1">
          <mxGeometry x="990" y="390" width="80" height="80" as="geometry" />
        </mxCell>
        <mxCell id="ATfqg-6l0cNKasMjlDqd-71" value="" style="endArrow=classic;html=1;rounded=0;exitX=0.967;exitY=0.595;exitDx=0;exitDy=0;exitPerimeter=0;dashed=1;" parent="1" source="ATfqg-6l0cNKasMjlDqd-25" target="ATfqg-6l0cNKasMjlDqd-70" edge="1">
          <mxGeometry width="50" height="50" relative="1" as="geometry">
            <mxPoint x="900" y="560" as="sourcePoint" />
            <mxPoint x="950" y="510" as="targetPoint" />
          </mxGeometry>
        </mxCell>
        <mxCell id="ATfqg-6l0cNKasMjlDqd-74" value="include" style="edgeLabel;html=1;align=center;verticalAlign=middle;resizable=0;points=[];" parent="ATfqg-6l0cNKasMjlDqd-71" vertex="1" connectable="0">
          <mxGeometry x="-0.3793" y="-1" relative="1" as="geometry">
            <mxPoint as="offset" />
          </mxGeometry>
        </mxCell>
        <mxCell id="ATfqg-6l0cNKasMjlDqd-72" value="" style="endArrow=classic;html=1;rounded=0;exitX=1;exitY=1;exitDx=0;exitDy=0;entryX=0.075;entryY=0.28;entryDx=0;entryDy=0;entryPerimeter=0;dashed=1;" parent="1" source="ATfqg-6l0cNKasMjlDqd-30" target="ATfqg-6l0cNKasMjlDqd-70" edge="1">
          <mxGeometry width="50" height="50" relative="1" as="geometry">
            <mxPoint x="900" y="560" as="sourcePoint" />
            <mxPoint x="950" y="510" as="targetPoint" />
          </mxGeometry>
        </mxCell>
        <mxCell id="ATfqg-6l0cNKasMjlDqd-73" value="include" style="edgeLabel;html=1;align=center;verticalAlign=middle;resizable=0;points=[];" parent="ATfqg-6l0cNKasMjlDqd-72" vertex="1" connectable="0">
          <mxGeometry x="0.2413" y="-2" relative="1" as="geometry">
            <mxPoint as="offset" />
          </mxGeometry>
        </mxCell>
        <mxCell id="ATfqg-6l0cNKasMjlDqd-76" value="xác nhận thông tin" style="ellipse;whiteSpace=wrap;html=1;aspect=fixed;" parent="1" vertex="1">
          <mxGeometry x="1250" y="390" width="80" height="80" as="geometry" />
        </mxCell>
        <mxCell id="ATfqg-6l0cNKasMjlDqd-77" value="" style="endArrow=classic;html=1;rounded=0;dashed=1;" parent="1" source="ATfqg-6l0cNKasMjlDqd-70" target="ATfqg-6l0cNKasMjlDqd-76" edge="1">
          <mxGeometry width="50" height="50" relative="1" as="geometry">
            <mxPoint x="900" y="560" as="sourcePoint" />
            <mxPoint x="950" y="510" as="targetPoint" />
            <Array as="points" />
          </mxGeometry>
        </mxCell>
        <mxCell id="ATfqg-6l0cNKasMjlDqd-78" value="include" style="edgeLabel;html=1;align=center;verticalAlign=middle;resizable=0;points=[];" parent="ATfqg-6l0cNKasMjlDqd-77" vertex="1" connectable="0">
          <mxGeometry x="0.1422" y="-1" relative="1" as="geometry">
            <mxPoint as="offset" />
          </mxGeometry>
        </mxCell>
      </root>
    </mxGraphModel>
  </diagram>
</mxfile>
